<svg width="25" height="25" viewBox="0 0 25 25" fill="none" xmlns="http://www.w3.org/2000/svg">
<path d="M3.33887 12.339C3.33887 16.1102 3.33887 19.9958 4.65689 21.1674C5.97491 22.339 8.09623 22.339 12.3389 22.339C16.5815 22.339 18.7028 22.339 20.0208 21.1674C21.3389 19.9958 21.3389 16.1102 21.3389 12.339" stroke="#2B71F0" stroke-width="1.5"/>
<path d="M14.9992 14.5409L21.1968 12.6816C21.6077 12.5583 21.8131 12.4967 21.9652 12.3745C22.0981 12.2677 22.2014 12.1288 22.2655 11.9709C22.3389 11.7901 22.3389 11.5756 22.3389 11.1466C22.3389 9.45926 22.3389 8.61557 22.0092 7.97166C21.7223 7.41141 21.2664 6.95558 20.7062 6.6687C20.0623 6.33899 19.2186 6.33899 17.5312 6.33899H7.14652C5.45914 6.33899 4.61545 6.33899 3.97154 6.6687C3.41129 6.95558 2.95546 7.41141 2.66858 7.97167C2.33887 8.61557 2.33887 9.45926 2.33887 11.1466C2.33887 11.5756 2.33887 11.7901 2.41223 11.9709C2.4763 12.1288 2.57966 12.2677 2.7125 12.3745C2.86461 12.4967 3.07005 12.5583 3.48093 12.6816L9.67855 14.5409" stroke="#2B71F0" stroke-width="1.5"/>
<path d="M14.3389 12.839H10.3389C10.0627 12.839 9.83887 13.0628 9.83887 13.339V15.5005C9.83887 15.7049 9.96334 15.8888 10.1532 15.9647L10.8533 16.2448C11.8069 16.6262 12.8708 16.6262 13.8244 16.2448L14.5246 15.9647C14.7144 15.8888 14.8389 15.7049 14.8389 15.5005V13.339C14.8389 13.0628 14.615 12.839 14.3389 12.839Z" stroke="#2B71F0" stroke-width="1.5" stroke-linecap="round"/>
<path d="M9.50977 4.33899C9.9216 3.1738 11.0328 2.33899 12.3391 2.33899C13.6453 2.33899 14.7565 3.1738 15.1684 4.33899" stroke="#2B71F0" stroke-width="1.5" stroke-linecap="round"/>
</svg>
