<svg width="17" height="17" viewBox="0 0 17 17" fill="none" xmlns="http://www.w3.org/2000/svg">
<path d="M3.8377 16.5H0.568164V5.98828H3.8377V16.5ZM2.18535 4.58203C1.16582 4.58203 0.32207 3.70312 0.32207 2.64844C0.32207 1.62891 1.16582 0.785156 2.18535 0.785156C3.24004 0.785156 4.08379 1.62891 4.08379 2.64844C4.08379 3.70312 3.24004 4.58203 2.18535 4.58203ZM16.0369 16.5H12.8025V11.4023C12.8025 10.1719 12.7674 8.625 11.0799 8.625C9.39238 8.625 9.14629 9.92578 9.14629 11.2969V16.5H5.87676V5.98828H9.00566V7.42969H9.04082C9.49785 6.62109 10.5525 5.74219 12.1346 5.74219C15.4393 5.74219 16.0721 7.92188 16.0721 10.7344V16.5H16.0369Z" fill="#001A40"/>
</svg>
