<svg width="20" height="14" viewBox="0 0 20 14" fill="none" xmlns="http://www.w3.org/2000/svg">
<path d="M19.3408 2.14453C19.7627 3.62109 19.7627 6.78516 19.7627 6.78516C19.7627 6.78516 19.7627 9.91406 19.3408 11.4258C19.1299 12.2695 18.4619 12.9023 17.6533 13.1133C16.1416 13.5 10.165 13.5 10.165 13.5C10.165 13.5 4.15332 13.5 2.6416 13.1133C1.83301 12.9023 1.16504 12.2695 0.954102 11.4258C0.532227 9.91406 0.532227 6.78516 0.532227 6.78516C0.532227 6.78516 0.532227 3.62109 0.954102 2.14453C1.16504 1.30078 1.83301 0.632812 2.6416 0.421875C4.15332 0 10.165 0 10.165 0C10.165 0 16.1416 0 17.6533 0.421875C18.4619 0.632812 19.1299 1.30078 19.3408 2.14453ZM8.19629 9.63281L13.1885 6.78516L8.19629 3.9375V9.63281Z" fill="#001A40"/>
</svg>
